#!OML:ASF E:\Mandelcareful walks\Project 1\Capture day 1\Session 1\Subject1.ASF
:FULLY-SPECIFIED
:DEGREES
256
root 6.25529 15.3997 1.30117 -173.528 -60.5461 177.166
lowerback 21.4021 -2.36435 -7.6799
upperback 7.40826 -5.46361 -1.01536
thorax -3.23028 -3.08779 4.53707
lowerneck -22.2506 -13.303 -15.3516
upperneck 17.5435 -18.9647 19.9423
head 13.2202 -7.61631 6.28817
rclavicle -3.97569e-014 4.6118e-014
rhumerus 31.6052 20.9873 -58.9872
rradius 127.745
rwrist -59.9297
rhand 1.27524 -20.436
rfingers 7.12502
rthumb 26.8113 -48.5555
lclavicle -3.97569e-014 4.6118e-014
lhumerus -19.5986 -3.95797 79.1467
lradius 56.6547
lwrist 22.095
lhand -24.6758 -11.443
lfingers 7.12502
lthumb 1.82468 18.529
rfemur -34.8735 0.920575 3.33997
rtibia 49.0182
rfoot -16.5942 3.52809
rtoes -10.4751
lfemur -25.0322 25.3752 -10.5189
ltibia 60.2935
lfoot -29.5791 11.6894
ltoes -14.1895
257
root 6.26147 15.4 1.29857 -173.296 -60.0164 176.899
lowerback 21.4765 -2.51777 -7.92153
upperback 7.33389 -5.71729 -0.947249
thorax -3.28323 -3.21041 4.80801
lowerneck -21.9906 -13.2646 -15.5292
upperneck 17.3101 -18.9086 20.1545
head 13.1173 -7.61126 6.41553
rclavicle -9.46215e-014 -3.18055e-015
rhumerus 31.5451 21.0786 -58.9045
rradius 127.912
rwrist -60.0493
rhand 1.25738 -20.2528
rfingers 7.12502
rthumb 26.7942 -48.3749
lclavicle -9.46215e-014 -3.18055e-015
lhumerus -19.7827 -3.67123 79.29
lradius 56.762
lwrist 21.7776
lhand -24.6786 -11.1293
lfingers 7.12502
lthumb 1.82196 18.8427
rfemur -35.1415 0.943275 3.26559
rtibia 49.0573
rfoot -16.4959 3.94939
rtoes -10.4219
lfemur -24.8911 25.5847 -10.71
ltibia 60.2215
lfoot -29.1741 12.026
ltoes -13.4288
258
root 6.24955 15.3999 1.29775 -173.526 -59.2566 176.944
lowerback 21.6564 -2.78883 -8.41769
upperback 7.24304 -6.16559 -0.486522
thorax -3.29999 -3.43823 5.69212
lowerneck -22.013 -13.0606 -16.4415
upperneck 17.3929 -18.2826 20.1433
head 13.115 -7.38457 6.72583
rclavicle -3.06128e-014 -4.45278e-014
rhumerus 32.1638 22.0341 -58.2612
rradius 128.072
rwrist -60.2913
rhand 1.2857 -20.0183
rfingers 7.12502
rthumb 26.8213 -48.1362
lclavicle -3.06128e-014 -4.45278e-014
lhumerus -20.2513 -2.23063 79.8317
lradius 56.8034
lwrist 21.3768
lhand -24.7588 -11.129
lfingers 7.12502
lthumb 1.74456 18.8437
rfemur -35.2117 1.23378 3.298
rtibia 49.0437
rfoot -16.3654 4.40425
rtoes -10.5383
lfemur -24.3505 25.8511 -10.6326
ltibia 60.1715
lfoot -29.2601 12.2479
ltoes -12.3271
259
root 6.25033 15.3924 1.29436 -173.542 -58.7121 177.149
lowerback 21.2808 -2.63866 -7.6463
upperback 7.37207 -5.8089 -0.93295
thorax -3.15851 -3.26421 4.67072
lowerneck -21.7587 -13.3751 -15.5662
upperneck 16.9509 -19.1137 20.4282
head 13.0203 -7.71107 6.47026
rclavicle 1.17681e-013 -4.37326e-014
rhumerus 31.1058 20.7862 -59.0451
rradius 128.289
rwrist -59.7352
rhand 1.83604 -20.038
rfingers 7.12502
rthumb 27.3478 -48.074
lclavicle 1.17681e-013 -4.37326e-014
lhumerus -19.6767 -4.13573 79.4447
lradius 56.5999
lwrist 21.5456
lhand -24.9077 -11.4905
lfingers 7.12502
lthumb 1.60071 18.4832
rfemur -35.6559 1.43273 3.44218
rtibia 49.0902
rfoot -16.2144 4.66104
rtoes -10.4381
lfemur -24.4027 26.0616 -10.5312
ltibia 60.1988
lfoot -29.5855 12.4405
ltoes -12.3978
260
root 6.24741 15.3877 1.28833 -173.863 -58.1779 177.576
lowerback 21.0789 -2.75666 -7.36036
upperback 7.4394 -5.89011 -0.924339
thorax -3.00244 -3.31286 4.51634
lowerneck -21.901 -13.4366 -15.2887
upperneck 16.9201 -19.2834 20.4281
head 13.0413 -7.76423 6.37424
rclavicle -5.08889e-014 5.24792e-014
rhumerus 31.2074 20.6845 -59.168
rradius 128.314
rwrist -59.4502
rhand 2.22635 -20.1379
rfingers 7.12502
rthumb 27.721 -48.1144
lclavicle -5.08889e-014 5.24792e-014
lhumerus -19.5367 -4.34302 79.417
lradius 56.5526
lwrist 21.5889
lhand -24.8679 -11.9797
lfingers 7.12502
lthumb 1.6391 17.9938
rfemur -35.9479 1.72842 3.71668
rtibia 49.1197
rfoot -16.1321 4.82848
rtoes -10.3144
lfemur -24.319 26.3148 -10.2276
ltibia 60.2124
lfoot -29.8032 12.5435
ltoes -12.5547
261
root 6.24772 15.3891 1.28144 -174.097 -57.8206 177.854
lowerback 21.0442 -2.76276 -7.15595
upperback 7.53218 -5.86237 -0.914574
thorax -2.90893 -3.30884 4.3992
lowerneck -22.2655 -13.522 -14.6463
upperneck 17.0265 -19.52 20.1441
head 13.0867 -7.82845 6.08688
rclavicle 7.196e-014 -3.49861e-014
rhumerus 31.2048 20.2892 -59.1052
rradius 128.358
rwrist -59.3359
rhand 2.20311 -20.023
rfingers 7.12502
rthumb 27.6988 -48.0031
lclavicle 7.196e-014 -3.49861e-014
lhumerus -19.1723 -4.73856 79.4299
lradius 56.4738
lwrist 21.2335
lhand -24.4957 -11.9632
lfingers 7.12502
lthumb 1.99861 18.0071
rfemur -36.1168 1.84522 3.94998
rtibia 49.1671
rfoot -16.1116 4.96204
rtoes -10.7398
lfemur -24.2205 26.5395 -10.0243
ltibia 60.201
lfoot -29.5907 12.5214
ltoes -11.9279
262
root 6.24862 15.3918 1.27412 -174.026 -57.5791 177.829
lowerback 21.0403 -2.92152 -7.10469
upperback 7.43906 -6.04958 -0.863579
thorax -2.98454 -3.39081 4.46857
lowerneck -22.3725 -13.4616 -14.5399
upperneck 17.3131 -19.4443 19.9019
head 13.1551 -7.7929 6.00068
rclavicle 3.93594e-014 1.03368e-014
rhumerus 31.1336 20.3234 -58.9766
rradius 128.602
rwrist -59.1973
rhand 2.12414 -20.031
rfingers 7.12502
rthumb 27.6233 -48.0233
lclavicle 3.93594e-014 1.03368e-014
lhumerus -19.2574 -4.55448 79.5556
lradius 56.5159
lwrist 20.63
lhand -24.1484 -11.4227
lfingers 7.12502
lthumb 2.334 18.5443
rfemur -36.2602 1.8732 3.9975
rtibia 49.1806
rfoot -16.078 5.08167
rtoes -10.9154
lfemur -24.1441 26.6171 -10.0268
ltibia 60.1285
lfoot -29.6052 12.6794
ltoes -12.0523
263
root 6.24626 15.3947 1.2673 -173.838 -57.3431 177.645
lowerback 20.986 -3.05273 -7.10073
upperback 7.37789 -6.21081 -0.854248
thorax -3.0027 -3.46499 4.5079
lowerneck -22.3306 -13.4028 -14.6045
upperneck 17.4261 -19.3799 19.9165
head 13.1884 -7.76766 6.03933
rclavicle 4.77083e-015 1.59028e-015
rhumerus 31.0993 20.3696 -58.8624
rradius 128.703
rwrist -59.3159
rhand 2.32899 -19.9036
rfingers 7.12502
rthumb 27.8192 -47.8644
lclavicle 4.77083e-015 1.59028e-015
lhumerus -19.3724 -4.66609 79.7308
lradius 56.5827
lwrist 20.6686
lhand -24.4099 -11.6804
lfingers 7.12502
lthumb 2.08152 18.2892
rfemur -36.3548 1.96558 3.91364
rtibia 49.1531
rfoot -16.0333 5.19165
rtoes -10.5788
lfemur -24.037 26.6036 -10.1216
ltibia 60.0032
lfoot -29.777 13.0756
ltoes -12.7702
264
root 6.239 15.4018 1.26032 -173.752 -57.154 177.401
lowerback 21.0092 -3.06721 -7.00692
upperback 7.43844 -6.2231 -0.895587
thorax -2.96338 -3.4771 4.41297
lowerneck -22.2565 -13.4468 -14.6653
upperneck 17.3431 -19.4786 20.0872
head 13.1953 -7.8088 6.09059
rclavicle -8.11041e-014 5.96354e-014
rhumerus 30.9854 20.1532 -58.6939
rradius 128.857
rwrist -59.4354
rhand 1.69053 -20.207
rfingers 7.12502
rthumb 27.2086 -48.2649
lclavicle -8.11041e-014 5.96354e-014
lhumerus -19.2265 -5.25807 79.9611
lradius 56.4842
lwrist 20.6614
lhand -24.9379 -12.5176
lfingers 7.12502
lthumb 1.57153 17.4564
rfemur -36.2265 2.03416 3.79887
rtibia 49.1029
rfoot -16.0411 5.32623
rtoes -10.3696
lfemur -23.7217 26.6081 -10.2262
ltibia 59.832
lfoot -29.5661 13.3469
ltoes -12.529
265
root 6.22823 15.4088 1.25078 -173.763 -56.9931 177.213
lowerback 21.03 -3.09173 -6.87106
upperback 7.50071 -6.23836 -0.915365
thorax -2.92282 -3.49038 4.31802
lowerneck -22.2778 -13.4134 -14.7528
upperneck 17.3889 -19.4255 20.1365
head 13.2246 -7.78345 6.13939
rclavicle -2.50469e-014 7.4743e-014
rhumerus 30.8336 19.9765 -58.5847
rradius 128.93
rwrist -59.589
rhand 0.943554 -20.7164
rfingers 7.12502
rthumb 26.4938 -48.8841
lclavicle -2.50469e-014 7.4743e-014
lhumerus -18.9806 -5.58623 80.2022
lradius 56.263
lwrist 20.3442
lhand -25.0938 -12.7725
lfingers 7.12502
lthumb 1.421 17.2025
rfemur -36.012 2.10073 3.72213
rtibia 49.0629
rfoot -16.1178 5.43667
rtoes -10.2731
lfemur -23.2887 26.6679 -10.2547
ltibia 59.6458
lfoot -29.4345 13.3863
ltoes -12.1065
266
root 6.22542 15.4104 1.2404 -173.618 -56.9725 177.075
lowerback 21.0937 -3.24568 -6.95531
upperback 7.33953 -6.44171 -0.787998
thorax -3.07955 -3.57411 4.55756
lowerneck -22.4847 -13.1092 -14.5281
upperneck 17.8185 -18.9566 19.6356
head 13.2363 -7.57892 6.03499
rclavicle 3.97569e-014 -7.95139e-016
rhumerus 30.8079 20.3648 -58.4693
rradius 128.994
rwrist -59.5947
rhand 1.22759 -21.1454
rfingers 7.12502
rthumb 26.7657 -49.2719
lclavicle 3.97569e-014 -7.95139e-016
lhumerus -19.106 -5.4121 80.4478
lradius 56.1541
lwrist 20.3424
lhand -25.0269 -12.735
lfingers 7.12502
lthumb 1.48555 17.2396
rfemur -36.0105 2.09213 3.66615
rtibia 49.0679
rfoot -16.1662 5.44938
rtoes -10.0078
lfemur -23.1854 26.6669 -10.3045
ltibia 59.4696
lfoot -29.4578 13.3401
ltoes -12.0308
267
root 6.23261 15.4137 1.22968 -173.128 -57.1143 176.694
lowerback 21.3931 -3.43318 -7.43521
upperback 6.9076 -6.76145 -0.474727
thorax -3.56033 -3.68488 5.28023
lowerneck -22.9046 -12.5928 -14.0194
upperneck 18.6562 -18.1218 18.5132
head 13.2632 -7.22629 5.73575
rclavicle 1.32391e-013 -1.27222e-014
rhumerus 30.8759 21.2982 -58.0937
rradius 129.028
rwrist -59.7188
rhand 2.11806 -21.2258
rfingers 7.12502
rthumb 27.6175 -49.219
lclavicle 1.32391e-013 -1.27222e-014
lhumerus -19.7103 -4.87061 80.9162
lradius 56.2058
lwrist 20.3093
lhand -24.8437 -12.7306
lfingers 7.12502
lthumb 1.66256 17.2426
rfemur -36.1556 1.94873 3.48689
rtibia 49.128
rfoot -16.1601 5.40057
rtoes -9.86118
lfemur -23.378 26.5379 -10.5582
ltibia 59.3002
lfoot -29.3719 13.2799
ltoes -12.2333
268
root 6.23584 15.42 1.21655 -172.634 -57.1534 176.201
lowerback 21.2534 -3.47787 -7.61047
upperback 6.84738 -6.83288 -0.402744
thorax -3.51305 -3.71894 5.4581
lowerneck -23.5797 -12.1092 -13.4707
upperneck 19.3324 -17.3572 17.6249
head 13.3383 -6.87558 5.48668
rclavicle 4.33351e-014 -1.24837e-013
rhumerus 31.0395 21.6448 -57.7861
rradius 128.886
rwrist -59.7228
rhand 2.46428 -20.7074
rfingers 7.12502
rthumb 27.9485 -48.6471
lclavicle 4.33351e-014 -1.24837e-013
lhumerus -19.6721 -4.81469 81.2325
lradius 56.118
lwrist 20.0586
lhand -24.711 -12.8408
lfingers 7.12502
lthumb 1.79066 17.1314
rfemur -36.2355 1.88357 3.24783
rtibia 49.2178
rfoot -16.1665 5.34956
rtoes -9.69045
lfemur -23.404 26.4918 -10.8316
ltibia 59.1385
lfoot -29.2984 13.1643
ltoes -12.3806
269
root 6.23601 15.4222 1.20228 -172.39 -57.1647 175.888
lowerback 20.6617 -3.47077 -7.31203
upperback 7.22238 -6.74242 -0.613954
thorax -2.88198 -3.72509 4.96375
lowerneck -24.6866 -11.483 -12.5382
upperneck 19.9136 -16.5243 16.9041
head 13.4503 -6.43683 5.23999
rclavicle -1.35174e-014 1.59028e-014
rhumerus 31.5111 21.4961 -57.8245
rradius 128.45
rwrist -59.5346
rhand 2.58804 -20.0668
rfingers 7.12502
rthumb 28.0668 -47.9873
lclavicle -1.35174e-014 1.59028e-014
lhumerus -18.9182 -5.32087 81.1084
lradius 55.8625
lwrist 19.87
lhand -24.5976 -12.9651
lfingers 7.12502
lthumb 1.90024 17.0062
rfemur -36.2023 1.8888 3.09344
rtibia 49.3096
rfoot -16.2346 5.33234
rtoes -9.2853
lfemur -23.235 26.5065 -10.947
ltibia 58.9951
lfoot -29.2954 12.9718
ltoes -12.1435
